PathFileType	4	(X/Y/Z)	D:\telocate\uwb07-Unnamed.trc
DataRate	CameraRate	NumFrames	NumMarkers	Units	OrigDataRate	OrigDataStartFrame	OrigNumFrames
100.00	100.00	     163	0	mm	100.00	2894	     23149
Frame#	Time	
		

2894	28.930				2107.62891	-465.90454	2406.37964	
2895	28.940				2106.89868	-466.86249	2409.52515	
2896	28.950				2106.19019	-467.84531	2412.54858	
2897	28.960				2105.68066	-468.28964	2416.07251	
2898	28.970				2105.71826	-469.17056	2418.44897	
2899	28.980				2105.52319	-470.73758	2421.40356	
2900	28.990				2105.70142	-471.39194	2424.73730	
2901	29.000				2105.99438	-472.48364	2427.40283	
2902	29.010				2107.63525	-473.39230	2430.34546	
2903	29.020				2108.36255	-474.21811	2433.73560	
2904	29.030				2107.34888	-475.18170	2436.59229	
2905	29.040				2108.60352	-476.01926	2439.52197	
2906	29.050				2109.33374	-476.75647	2442.47681	
2907	29.060				2110.94287	-477.97339	2445.80127	
2908	29.070				2111.93823	-478.99344	2448.92041	
2909	29.080				2114.37280	-479.39960	2451.90234	
2910	29.090				2116.37427	-480.31244	2455.10205	
2911	29.100				2118.40869	-481.50192	2458.19189	
2912	29.110				2120.71924	-482.21664	2460.79688	
2913	29.120				2122.75024	-482.90097	2463.94727	
2914	29.130				2124.26099	-483.99713	2466.64746	
2915	29.140				2125.23267	-484.58621	2469.39697	
2916	29.150				2127.37769	-486.13104	2472.69971	
2917	29.160				2128.90674	-486.79214	2475.40942	
2918	29.170				2130.35913	-487.33566	2477.98853	
2919	29.180				2134.35010	-487.13617	2481.13013	
2920	29.190				2136.37476	-487.74194	2483.80762	
2921	29.200				2138.82959	-487.66702	2486.70581	
2922	29.210				2140.99707	-488.08023	2489.04834	
2923	29.220				2143.04224	-488.28830	2491.66211	
2924	29.230				2144.28638	-488.63205	2494.13623	
2925	29.240				2146.02271	-488.69476	2496.78955	
2926	29.250				2147.07422	-489.31323	2498.78906	
2927	29.260				2148.18799	-489.67001	2501.59326	
2928	29.270				2149.73511	-491.04538	2504.22974	
2929	29.280				2151.53979	-492.06125	2506.70605	
2930	29.290				2153.22339	-493.76038	2509.49487	
2931	29.300				2155.49585	-494.83276	2512.15063	
2932	29.310				2156.95093	-496.56635	2514.74121	
2933	29.320				2159.25928	-498.18079	2516.94043	
2934	29.330				2161.93408	-499.83408	2519.62964	
2935	29.340				2163.95752	-501.47375	2521.93213	
2936	29.350				2165.67236	-503.12140	2524.40356	
2937	29.360				2167.17603	-505.40216	2526.44897	
2938	29.370				2169.21143	-506.99704	2529.09692	
2939	29.380				2170.96509	-508.96033	2531.30029	
2940	29.390				2172.09229	-510.67349	2533.33057	
2941	29.400				2173.60742	-511.69135	2535.85449	
2942	29.410				2175.20313	-513.05743	2537.36621	
2943	29.420				2176.54736	-514.02942	2539.47998	
2944	29.430				2177.51416	-514.99445	2541.24561	
2945	29.440				2178.72339	-515.90833	2542.86353	
2946	29.450				2180.17139	-516.88361	2544.58569	
2947	29.460				2181.26904	-518.03717	2546.25415	
2948	29.470				2182.80908	-518.88794	2548.54834	
2949	29.480				2183.46582	-519.75739	2549.77783	
2950	29.490				2184.57764	-520.36554	2551.30957	
2951	29.500				2184.96851	-520.92969	2553.43457	
2952	29.510				2185.18994	-521.17975	2555.20972	
2953	29.520				2184.70093	-521.82184	2556.44653	
2954	29.530				2184.65552	-522.04749	2558.10962	
2955	29.540				2184.71484	-521.97162	2559.70898	
2956	29.550				2184.23389	-521.62500	2561.46484	
2957	29.560				2184.08179	-520.42755	2563.22339	
2958	29.570				2183.97241	-520.07190	2564.37476	
2959	29.580				2183.27539	-519.06848	2565.70850	
2960	29.590				2182.45117	-518.59808	2567.12891	
2961	29.600				2181.32129	-517.93628	2568.65723	
2962	29.610				2179.69336	-517.50293	2570.12915	
2963	29.620				2178.91846	-516.64655	2571.27515	
2964	29.630				2177.00000	-515.54840	2572.49243	
2965	29.640				2176.05640	-514.25830	2574.25293	
2966	29.650				2174.73315	-513.28339	2575.07007	
2967	29.660				2173.75684	-512.08398	2576.19678	
2968	29.670				2172.38306	-511.34937	2577.37061	
2969	29.680				2170.72168	-510.53378	2578.53247	
2970	29.690				2169.62524	-509.13843	2579.70825	
2971	29.700				2168.03882	-507.76282	2580.75220	
2972	29.710				2166.87183	-506.54248	2582.04224	
2973	29.720				2165.70483	-504.78708	2582.97485	
2974	29.730				2164.23413	-503.07816	2583.57715	
2975	29.740				2162.30298	-501.66174	2584.80542	
2976	29.750				2161.25854	-500.52927	2585.59814	
2977	29.760				2160.09033	-499.46683	2586.51147	
2978	29.770				2158.76685	-498.33026	2587.38525	
2979	29.780				2157.42944	-497.44922	2588.29199	
2980	29.790				2156.08032	-496.47495	2589.14185	
2981	29.800				2155.03223	-495.61630	2590.19922	
2982	29.810				2153.06006	-494.89908	2590.79688	
2983	29.820				2151.75293	-494.16449	2591.44092	
2984	29.830				2150.54956	-493.74207	2592.01318	
2985	29.840				2149.25708	-493.09015	2592.35522	
2986	29.850				2147.51172	-492.37476	2593.24170	
2987	29.860				2146.02075	-492.16977	2593.56274	
2988	29.870				2144.21582	-492.05621	2594.11499	
2989	29.880				2142.37915	-491.14899	2594.86865	
2990	29.890				2140.84814	-490.33167	2595.47656	
2991	29.900				2139.39575	-489.34979	2596.25610	
2992	29.910				2138.10718	-488.59140	2596.59131	
2993	29.920				2137.01050	-487.83786	2597.05249	
2994	29.930				2135.62769	-486.89651	2597.35059	
2995	29.940				2134.42847	-486.38324	2597.83008	
2996	29.950				2133.15869	-485.38669	2598.54785	
2997	29.960				2131.95386	-484.67953	2599.07251	
2998	29.970				2127.87695	-484.43521	2599.40625	
2999	29.980				2129.13672	-482.94330	2600.28125	
3000	29.990				2128.32544	-482.25021	2600.82153	
3001	30.000				2126.73022	-481.28232	2601.44971	
3002	30.010				2124.97192	-480.48343	2601.92700	
3003	30.020				2123.72900	-479.94748	2602.17847	
3004	30.030				2120.63379	-480.38068	2603.11597	
3005	30.040				2118.85693	-479.70386	2603.45972	
3006	30.050				2116.66089	-479.61685	2603.77002	
3007	30.060				2114.00220	-479.66779	2604.45313	
3008	30.070				2111.07935	-479.49496	2604.76514	
3009	30.080				2108.31006	-479.63699	2605.38281	
3010	30.090				2105.22217	-479.97650	2605.56396	
3011	30.100				2102.19629	-480.29681	2606.24512	
3012	30.110				2099.81104	-480.34036	2606.78857	
3013	30.120				2098.18628	-480.33871	2607.52563	
3014	30.130				2095.83984	-480.91006	2608.11597	
3015	30.140				2093.58667	-481.46188	2608.80664	
3016	30.150				2090.79688	-482.02390	2609.73901	
3017	30.160				2087.94824	-483.41733	2610.36377	
3018	30.170				2084.33545	-484.32059	2611.01880	
3019	30.180				2082.34033	-484.85260	2611.52246	
3020	30.190				2080.12134	-485.85745	2612.54004	
3021	30.200				2077.84033	-487.67542	2613.10156	
3022	30.210				2076.83691	-488.72626	2614.11597	
3023	30.220				2075.06372	-489.87680	2615.76196	
3024	30.230				2073.02051	-491.82800	2616.72607	
3025	30.240				2070.14307	-493.64645	2617.66553	
3026	30.250				2066.69995	-496.22296	2618.41577	
3027	30.260				2063.43799	-498.62567	2619.82593	
3028	30.270				2059.94116	-501.52838	2620.69849	
3029	30.280				2057.62061	-504.41824	2621.66357	
3030	30.290				2055.22363	-507.89685	2622.83325	
3031	30.300				2054.16211	-510.88297	2624.52319	
3032	30.310				2052.05566	-514.16553	2626.01855	
3033	30.320				2050.58911	-516.92023	2627.69580	
3034	30.330				2048.17725	-520.24695	2628.96338	
3035	30.340				2045.45459	-523.77820	2630.67896	
3036	30.350				2043.22498	-527.79041	2632.04248	
3037	30.360				2041.11816	-531.23297	2633.43555	
3038	30.370				2038.08337	-535.44110	2635.38989	
3039	30.380				2038.22559	-538.93164	2637.34033	
3040	30.390				2036.47485	-542.89844	2639.32544	
3041	30.400				2034.04907	-547.26501	2641.51245	
3042	30.410				2031.03357	-551.59625	2643.42310	
3043	30.420				2027.61658	-555.62512	2645.13647	
3044	30.430				2023.45752	-559.99249	2647.34790	
3045	30.440				2021.28088	-564.07324	2649.58276	
3046	30.450				2019.36816	-568.16962	2652.00415	
3047	30.460				2017.33826	-572.33881	2654.30225	
3048	30.470				2014.41504	-576.30707	2656.82251	
3049	30.480				2011.68909	-579.98145	2659.79321	
3050	30.490				2007.73987	-584.11310	2662.12744	
3051	30.500				2004.50122	-587.78534	2664.62500	
3052	30.510				2002.06726	-591.86237	2667.56763	
3053	30.520				1999.97913	-595.90143	2670.73975	
3054	30.530				1997.22595	-600.39441	2673.62524	
3055	30.540				1992.90955	-604.97156	2675.98779	
3056	30.550				1988.72913	-609.33069	2678.39551	
